<?xml version="1.0" encoding="UTF-8"?>
<svg id="Layer_1" data-name="Layer 1" xmlns="http://www.w3.org/2000/svg" viewBox="0 0 612.5896 437.7479">
  <defs>
    <style>
      .cls-1 {
        fill: none;
      }

      .cls-2 {
        fill: #369;
      }
    </style>
  </defs>
  <g>
    <rect class="cls-1" x="8.3613" y="367.3136" width="865" height="395.3995"/>
    <path class="cls-2" d="M19.5122,394.1626l-2.4004,8.6504h-7.8506l10.251-33.7021h10.0005l10.5005,33.7021h-8.2505l-2.6001-8.6504h-9.6504ZM28.0625,388.4619l-2.1001-7.1504c-.6001-2-1.2002-4.5-1.7002-6.5h-.1001c-.5,2-1,4.5498-1.5498,6.5l-2,7.1504h7.4502Z"/>
    <path class="cls-2" d="M64.1626,399.2627c0,4.7002-.9502,8.5508-3.7505,11.001-2.6499,2.2998-6.3003,3-9.9004,3-3.25,0-6.6006-.6499-8.8008-1.8501l1.5005-5.8003c1.5498.8999,4.2002,1.8501,7.1001,1.8501,3.6006,0,6.3506-1.9004,6.3506-6.4507v-1.5498h-.1001c-1.4502,2-3.8003,3.1499-6.6001,3.1499-6.0508,0-10.3511-4.8999-10.3511-11.9004,0-7.9009,5.0503-12.9009,11.1011-12.9009,3.3501,0,5.4502,1.4502,6.7002,3.5h.1001l.25-2.9502h6.6001c-.0996,1.6001-.1997,3.6504-.1997,7.3008v13.6006ZM56.562,388.312c0-.4497-.0498-.9502-.1499-1.3999-.5503-2-2-3.3501-4.1001-3.3501-2.8003,0-5.0005,2.5-5.0005,6.9502,0,3.6504,1.8003,6.5005,4.9502,6.5005,2,0,3.5503-1.3003,4.0503-3.0503.2002-.6001.25-1.3999.25-2.0503v-3.6001Z"/>
    <path class="cls-2" d="M73.6108,393.0122c.2002,3.1504,3.3506,4.6504,6.9004,4.6504,2.6001,0,4.7007-.3501,6.7505-1.0498l1,5.1499c-2.5,1.0503-5.5503,1.5503-8.8506,1.5503-8.3003,0-13.0508-4.8003-13.0508-12.4507,0-6.2002,3.8506-13.0508,12.3511-13.0508,7.9004,0,10.9004,6.1504,10.9004,12.2007,0,1.3003-.1499,2.4502-.25,3h-15.751ZM82.5615,387.812c0-1.8501-.7998-4.9502-4.3003-4.9502-3.2002,0-4.5,2.9502-4.7002,4.9502h9.0005Z"/>
    <path class="cls-2" d="M91.6606,386.1621c0-3.0503-.1001-5.6006-.2002-7.8008h6.6006l.3501,3.4004h.1499c1-1.6001,3.4502-3.9502,7.5503-3.9502,5.0005,0,8.7505,3.3501,8.7505,10.5508v14.4507h-7.6001v-13.5508c0-3.1504-1.1001-5.3003-3.8506-5.3003-2.1001,0-3.3501,1.4502-3.8999,2.8501-.2002.5-.25,1.2002-.25,1.8999v14.1011h-7.6006v-16.6509Z"/>
    <path class="cls-2" d="M126.6621,371.7612v6.6001h5.4502v5.6006h-5.4502v8.8506c0,2.9502.75,4.3003,3,4.3003,1.0498,0,1.5498-.0503,2.25-.2002l.0498,5.7505c-.9492.3501-2.7998.6499-4.8994.6499-2.4502,0-4.501-.8501-5.751-2.1001-1.3999-1.4502-2.1001-3.8003-2.1001-7.2505v-10.0005h-3.25v-5.6006h3.25v-4.5503l7.4507-2.0498Z"/>
    <path class="cls-2" d="M141.8613,371.561c0,2.1001-1.5498,3.8003-4.0996,3.8003-2.4004,0-3.9502-1.7002-3.9502-3.8003,0-2.1499,1.5996-3.8003,4.0498-3.8003s3.9502,1.6504,4,3.8003ZM134.0107,402.813v-24.4517h7.6006v24.4517h-7.6006Z"/>
    <path class="cls-2" d="M163.5615,402.1631c-1.3506.6499-3.9004,1.1499-6.8008,1.1499-7.9004,0-12.9502-4.8501-12.9502-12.5005,0-7.1509,4.9004-13.001,14.001-13.001,2,0,4.2002.3501,5.7998.9502l-1.2002,5.6504c-.8994-.4004-2.25-.7505-4.25-.7505-4,0-6.6006,2.8506-6.5508,6.8506,0,4.4502,3.001,6.8506,6.7012,6.8506,1.7998,0,3.2002-.3003,4.3496-.8003l.9004,5.6006Z"/>
    <path d="M173.3594,394.9624c2.001,1.0503,5.2012,2.1001,8.4512,2.1001,3.5,0,5.3496-1.4502,5.3496-3.6499,0-2.1001-1.5996-3.3003-5.6494-4.7007-5.6006-2-9.3008-5.1001-9.3008-10.0005,0-5.7505,4.8496-10.1006,12.751-10.1006,3.8496,0,6.5996.75,8.5996,1.7002l-1.6992,6.1001c-1.3008-.6499-3.751-1.5996-7.001-1.5996-3.2998,0-4.9004,1.5498-4.9004,3.25,0,2.1499,1.8506,3.1001,6.251,4.75,5.9502,2.2002,8.7002,5.3008,8.7002,10.0508,0,5.6504-4.2998,10.4507-13.5508,10.4507-3.8506,0-7.6504-1.0498-9.5508-2.1001l1.5498-6.2505Z"/>
    <path d="M221.8594,390.312c0,8.9507-6.3496,13.0508-12.9004,13.0508-7.1504,0-12.6504-4.7002-12.6504-12.6006,0-7.9507,5.2002-13.001,13.1006-13.001,7.4502,0,12.4502,5.1504,12.4502,12.5508ZM204.1592,390.562c0,4.2007,1.75,7.3506,5,7.3506,3,0,4.8506-2.9502,4.8506-7.4004,0-3.6001-1.4004-7.3003-4.8506-7.3003-3.6006,0-5,3.75-5,7.3501Z"/>
    <path d="M224.958,402.813v-18.8511h-3.25v-5.6006h3.25v-.9497c0-2.9502.9004-6.2007,3.0498-8.2007,1.9502-1.8003,4.5508-2.4502,6.8008-2.4502,1.6504,0,2.9502.25,4,.5l-.2998,5.8506c-.6504-.2002-1.4502-.3501-2.4502-.3501-2.5,0-3.5498,1.9502-3.5498,4.3501v1.25h4.9004v5.6006h-4.8506v18.8511h-7.6006Z"/>
    <path d="M247.8584,371.7612v6.6001h5.4502v5.6006h-5.4502v8.8506c0,2.9502.75,4.3003,3,4.3003,1.0498,0,1.5498-.0503,2.25-.2002l.0498,5.7505c-.9492.3501-2.7998.6499-4.8994.6499-2.4502,0-4.501-.8501-5.751-2.1001-1.4004-1.4502-2.0996-3.8003-2.0996-7.2505v-10.0005h-3.251v-5.6006h3.251v-4.5503l7.4502-2.0498Z"/>
    <path d="M260.708,378.3613l2,10.0508c.4502,2.5.9502,5.2002,1.3496,8.0005h.1504c.4502-2.8003,1.2002-5.5503,1.75-7.9507l2.6006-10.1006h6l2.4502,9.751c.7002,2.7998,1.3496,5.5,1.7998,8.3003h.1006c.3496-2.75.8496-5.5503,1.4502-8.3506l2.0498-9.7007h7.4502l-7.5,24.4517h-7.1006l-2.3008-8.5503c-.6494-2.4004-1.0996-4.6006-1.5996-7.6509h-.0996c-.4502,3.0503-.9502,5.3506-1.5508,7.6006l-2.4502,8.6006h-7.1504l-7.1504-24.4517h7.751Z"/>
    <path d="M310.9082,396.9126c0,2.3003.0996,4.5503.4004,5.9004h-6.8506l-.4502-2.4502h-.1504c-1.5996,1.9502-4.0996,3-7,3-4.9502,0-7.9004-3.6001-7.9004-7.5,0-6.3506,5.7002-9.3506,14.3506-9.3506v-.3003c0-1.3501-.7002-3.2002-4.4502-3.2002-2.5,0-5.1504.8501-6.75,1.8501l-1.4004-4.9004c1.7002-.9497,5.0508-2.2002,9.501-2.2002,8.1504,0,10.7002,4.8003,10.7002,10.6011v8.5503ZM303.5576,391.2622c-4,0-7.1006.9502-7.1006,3.8501,0,1.9502,1.3008,2.9004,3.001,2.9004,1.8496,0,3.4502-1.25,3.9502-2.8003.0996-.3999.1494-.8501.1494-1.2998v-2.6504Z"/>
    <path d="M314.457,386.4121c0-3.6006-.0498-5.9507-.1992-8.0508h6.5l.2998,4.5005h.2002c1.25-3.6001,4.2002-5.1006,6.6006-5.1006.7002,0,1.0498.0503,1.5996.1504v7.1504c-.5996-.1001-1.2002-.2002-2.0498-.2002-2.7998,0-4.7002,1.5-5.2002,3.8501-.1006.5-.1504,1.1001-.1504,1.7002v12.4009h-7.6006v-16.4009Z"/>
    <path d="M336.4072,393.0122c.2002,3.1504,3.3506,4.6504,6.9004,4.6504,2.6006,0,4.7002-.3501,6.751-1.0498l1,5.1499c-2.5,1.0503-5.5508,1.5503-8.8506,1.5503-8.3008,0-13.0508-4.8003-13.0508-12.4507,0-6.2002,3.8496-13.0508,12.3506-13.0508,7.9004,0,10.9004,6.1504,10.9004,12.2007,0,1.3003-.1494,2.4502-.25,3h-15.751ZM345.3584,387.812c0-1.8501-.8008-4.9502-4.3008-4.9502-3.2002,0-4.5,2.9502-4.7002,4.9502h9.001Z"/>
    <path d="M382.3584,388.562h-12.4014v8.0005h13.8516v6.2505h-21.4512v-33.7021h20.751v6.2505h-13.1514v7.0005h12.4014v6.2002Z"/>
    <path d="M386.2568,386.1621c0-3.0503-.0996-5.6006-.1992-7.8008h6.5996l.3506,3.4004h.1494c1-1.6001,3.4502-3.9502,7.5508-3.9502,5,0,8.751,3.3501,8.751,10.5508v14.4507h-7.6006v-13.5508c0-3.1504-1.1006-5.3003-3.8506-5.3003-2.0996,0-3.3496,1.4502-3.9004,2.8501-.2002.5-.25,1.2002-.25,1.8999v14.1011h-7.6006v-16.6509Z"/>
    <path d="M436.208,399.2627c0,4.7002-.9492,8.5508-3.75,11.001-2.6504,2.2998-6.2998,3-9.9004,3-3.25,0-6.6006-.6499-8.8008-1.8501l1.5-5.8003c1.5508.8999,4.2002,1.8501,7.1006,1.8501,3.6006,0,6.3506-1.9004,6.3506-6.4507v-1.5498h-.0996c-1.4502,2-3.8008,3.1499-6.6006,3.1499-6.0508,0-10.3506-4.8999-10.3506-11.9004,0-7.9009,5.0498-12.9009,11.1006-12.9009,3.3496,0,5.4502,1.4502,6.7002,3.5h.0996l.25-2.9502h6.6006c-.0996,1.6001-.2002,3.6504-.2002,7.3008v13.6006ZM428.6084,388.312c0-.4497-.0508-.9502-.1504-1.3999-.5498-2-2-3.3501-4.1006-3.3501-2.7998,0-5,2.5-5,6.9502,0,3.6504,1.7998,6.5005,4.9502,6.5005,2,0,3.5508-1.3003,4.0508-3.0503.1992-.6001.25-1.3999.25-2.0503v-3.6001Z"/>
    <path d="M447.6572,371.561c0,2.1001-1.5498,3.8003-4.0996,3.8003-2.4004,0-3.9502-1.7002-3.9502-3.8003,0-2.1499,1.5996-3.8003,4.0498-3.8003s3.9502,1.6504,4,3.8003ZM439.8066,402.813v-24.4517h7.6006v24.4517h-7.6006Z"/>
    <path d="M451.0059,386.1621c0-3.0503-.0996-5.6006-.1992-7.8008h6.5996l.3506,3.4004h.1494c1-1.6001,3.4502-3.9502,7.5508-3.9502,5,0,8.751,3.3501,8.751,10.5508v14.4507h-7.6006v-13.5508c0-3.1504-1.1006-5.3003-3.8506-5.3003-2.0996,0-3.3496,1.4502-3.9004,2.8501-.2002.5-.25,1.2002-.25,1.8999v14.1011h-7.6006v-16.6509Z"/>
    <path d="M483.6562,393.0122c.2002,3.1504,3.3506,4.6504,6.9004,4.6504,2.6006,0,4.7002-.3501,6.751-1.0498l1,5.1499c-2.5,1.0503-5.5508,1.5503-8.8506,1.5503-8.3008,0-13.0508-4.8003-13.0508-12.4507,0-6.2002,3.8496-13.0508,12.3506-13.0508,7.9004,0,10.9004,6.1504,10.9004,12.2007,0,1.3003-.1494,2.4502-.25,3h-15.751ZM492.6074,387.812c0-1.8501-.8008-4.9502-4.3008-4.9502-3.2002,0-4.5,2.9502-4.7002,4.9502h9.001Z"/>
    <path d="M507.5566,393.0122c.2002,3.1504,3.3506,4.6504,6.9004,4.6504,2.6006,0,4.7002-.3501,6.751-1.0498l1,5.1499c-2.5,1.0503-5.5508,1.5503-8.8506,1.5503-8.3008,0-13.0508-4.8003-13.0508-12.4507,0-6.2002,3.8496-13.0508,12.3506-13.0508,7.9004,0,10.9004,6.1504,10.9004,12.2007,0,1.3003-.1494,2.4502-.25,3h-15.751ZM516.5078,387.812c0-1.8501-.8008-4.9502-4.3008-4.9502-3.2002,0-4.5,2.9502-4.7002,4.9502h9.001Z"/>
    <path d="M525.6064,386.4121c0-3.6006-.0498-5.9507-.1992-8.0508h6.5l.2998,4.5005h.2002c1.25-3.6001,4.2002-5.1006,6.6006-5.1006.7002,0,1.0498.0503,1.5996.1504v7.1504c-.5996-.1001-1.2002-.2002-2.0498-.2002-2.7998,0-4.7002,1.5-5.2002,3.8501-.1006.5-.1504,1.1001-.1504,1.7002v12.4009h-7.6006v-16.4009Z"/>
    <path d="M549.9561,371.561c0,2.1001-1.5498,3.8003-4.0996,3.8003-2.4004,0-3.9502-1.7002-3.9502-3.8003,0-2.1499,1.5996-3.8003,4.0498-3.8003s3.9502,1.6504,4,3.8003ZM542.1055,402.813v-24.4517h7.6006v24.4517h-7.6006Z"/>
    <path d="M553.3047,386.1621c0-3.0503-.0996-5.6006-.1992-7.8008h6.5996l.3506,3.4004h.1494c1-1.6001,3.4502-3.9502,7.5508-3.9502,5,0,8.751,3.3501,8.751,10.5508v14.4507h-7.6006v-13.5508c0-3.1504-1.1006-5.3003-3.8506-5.3003-2.0996,0-3.3496,1.4502-3.9004,2.8501-.2002.5-.25,1.2002-.25,1.8999v14.1011h-7.6006v-16.6509Z"/>
    <path d="M603.2559,399.2627c0,4.7002-.9492,8.5508-3.75,11.001-2.6504,2.2998-6.2998,3-9.9004,3-3.25,0-6.6006-.6499-8.8008-1.8501l1.5-5.8003c1.5508.8999,4.2002,1.8501,7.1006,1.8501,3.6006,0,6.3506-1.9004,6.3506-6.4507v-1.5498h-.0996c-1.4502,2-3.8008,3.1499-6.6006,3.1499-6.0508,0-10.3506-4.8999-10.3506-11.9004,0-7.9009,5.0498-12.9009,11.1006-12.9009,3.3496,0,5.4502,1.4502,6.7002,3.5h.0996l.25-2.9502h6.6006c-.0996,1.6001-.2002,3.6504-.2002,7.3008v13.6006ZM595.6562,388.312c0-.4497-.0508-.9502-.1504-1.3999-.5498-2-2-3.3501-4.1006-3.3501-2.7998,0-5,2.5-5,6.9502,0,3.6504,1.7998,6.5005,4.9502,6.5005,2,0,3.5508-1.3003,4.0508-3.0503.1992-.6001.25-1.3999.25-2.0503v-3.6001Z"/>
  </g>
  <path d="M463.1843,294.6669v-80h124v-62h-124v-70h131.5V20.1669h-115.252v-.0552h-112v60h27.4702v3.185c-2.4529-.7571-5.0222-1.488-7.7183-2.1721v82.5298c41.204,21.0392,60.5,53.2391,60.5,93.0125,0,38.0516-19.507,77.2455-60.5,95.5201v4.9799h214.5v-62.5h-138.5Z"/>
  <path d="M306.6777,216.9331l17.3463-70.5212c-26.3575-11.3248-37.8387-20.8152-37.8387-37.7444,0-17,16-32.5,49-32.5,32.5,0,57,9.5,70,16l17-61c-20-9.5-47.5-17-86-17-79,0-127.5,43.5-127.5,101,0,49,37,80,93,100,1.7131.5922,3.3662,1.1798,4.9924,1.7657Z"/>
  <path class="cls-2" d="M348.6853,156.1674c-4.6635-1.7488-9.0231-3.4155-13.1219-5.0297l-17.2764,70.2367c28.3309,11.5986,39.8983,22.9456,39.8983,40.793,0,22-18.5,36.5-53.5,36.5-14.3855,0-28.6706-2.0595-41.8628-5.2632v64.6928c11.9549,1.9174,24.6292,3.0709,37.3628,3.0709,92.5,0,135.5-48.0005,135.5-104.5005,0-47.5-27.5-78.5-87-100.5Z"/>
  <path class="cls-2" d="M283.1062,218.1625c-50.9768-20.0632-84.0938-54.3008-84.0938-100.6503,0-27.8409,9.3707-54.3995,30.0681-72.3275l-5.8787-23.2868h-100L20.7019,358.8984h78.5l24-86.5005h96.5l26,86.5005h24.5421v-59.7936c8.0934,1.2095,16.4135,1.9073,24.7685,1.9073,5.3359,0,10.2832-.3413,14.8451-.9905l-26.7513-81.8591ZM152.5477,158.4454c-.3217-.9047-.563-1.8095-.7238-2.7142-.6031-3.0963-.764-5.9714-.0402-8.7258.8646-3.6793,2.855-6.6348,5.0867-8.9269,1.4074-1.5079,3.0159-2.8349,4.7047-3.9005,1.3873-.9651,2.9153-1.7894,4.584-2.3524,1.3069-.4222,2.6942-.7238,4.1619-.7841,4.5237-.382,7.9618.7439,10.4348,2.2116,3.6793,2.0306,5.0867,4.7248,5.0867,4.7248,0,0,8.4444.5831,5.5894,17.7331-.1608.8846-.4021,1.8095-.7238,2.7143,1.6888-.1609,3.6793.8243,1.8094,7.439-1.3671,4.8455-2.6338,6.1926-3.5989,6.2729-.9047,5.7301-5.4888,13.0284-12.6665,15.622-2.9957,1.0858-6.2729,1.0656-9.2687.0201-7.2983-2.5735-11.7416-9.892-12.6263-15.6422-.9651-.0804-2.2318-1.4275-3.619-6.2528-1.8698-6.6147.1207-7.5999,1.8095-7.4391ZM212.5427,209.795s-.4423,5.9311-.8846,8.5449c0,0-14.9585,9.7311-40.0101,9.7311-25.0516-.0201-40.0101-9.7311-40.0101-9.7311-.4423-2.6138-.8846-8.5449-.8846-8.5449-.3016-4.3629.0603-13.2094,7.7205-15.1596,10.2739-2.6138,18.6177-8.4846,18.6177-8.4846l6.5344,20.6082,1.2264,3.8804.0201-.0603,1.0656,3.2973,3.438-9.7512c-8.4443-11.7819,1.709-11.6613,2.2719-11.6411.563-.0201,10.7162-.1407,2.2719,11.6411l3.438,9.7512,1.0656-3.2973.0201.0603,1.2264-3.8804,6.5142-20.6082s8.3438,5.8708,18.6178,8.4846c7.6602,1.9502,8.0221,10.7967,7.7406,15.1596Z"/>
</svg>