<?xml version="1.0" encoding="UTF-8" standalone="no"?>
<!DOCTYPE svg PUBLIC "-//W3C//DTD SVG 1.1//EN" "http://www.w3.org/Graphics/SVG/1.1/DTD/svg11.dtd">
<svg xmlns="http://www.w3.org/2000/svg" xmlns:xl="http://www.w3.org/1999/xlink" xmlns:dc="http://purl.org/dc/elements/1.1/" version="1.1" viewBox="19.84252 9.383158 803.8449 554.71135" width="803.8449" height="554.71135">
  <defs>
    <marker orient="auto" overflow="visible" markerUnits="strokeWidth" id="FilledArrow_Marker" stroke-linejoin="miter" stroke-miterlimit="10" viewBox="-1 -3 6 6" markerWidth="6" markerHeight="6" color="#1067b2">
      <g>
        <path d="M 3.6 0 L 0 -1.35 L 0 1.35 Z" fill="currentColor" stroke="currentColor" stroke-width="1"/>
      </g>
    </marker>
    <marker orient="auto" overflow="visible" markerUnits="strokeWidth" id="FilledArrow_Marker_2" stroke-linejoin="miter" stroke-miterlimit="10" viewBox="-1 -3 6 6" markerWidth="6" markerHeight="6" color="#b31f19">
      <g>
        <path d="M 3.6 0 L 0 -1.35 L 0 1.35 Z" fill="currentColor" stroke="currentColor" stroke-width="1"/>
      </g>
    </marker>
    <marker orient="auto" overflow="visible" markerUnits="strokeWidth" id="FilledArrow_Marker_3" stroke-linejoin="miter" stroke-miterlimit="10" viewBox="-1 -3 6 6" markerWidth="6" markerHeight="6" color="#b26813">
      <g>
        <path d="M 3.6 0 L 0 -1.35 L 0 1.35 Z" fill="currentColor" stroke="currentColor" stroke-width="1"/>
      </g>
    </marker>
    <marker orient="auto" overflow="visible" markerUnits="strokeWidth" id="FilledArrow_Marker_4" stroke-linejoin="miter" stroke-miterlimit="10" viewBox="-5 -3 6 6" markerWidth="6" markerHeight="6" color="#b26813">
      <g>
        <path d="M -3.6 0 L 0 1.35 L 0 -1.35 Z" fill="currentColor" stroke="currentColor" stroke-width="1"/>
      </g>
    </marker>
    <marker orient="auto" overflow="visible" markerUnits="strokeWidth" id="FilledArrow_Marker_5" stroke-linejoin="miter" stroke-miterlimit="10" viewBox="-1 -3 6 6" markerWidth="6" markerHeight="6" color="black">
      <g>
        <path d="M 3.6 0 L 0 -1.35 L 0 1.35 Z" fill="currentColor" stroke="currentColor" stroke-width="1"/>
      </g>
    </marker>
  </defs>
  <g id="Canvas_1" stroke-dasharray="none" fill-opacity="1" stroke-opacity="1" fill="none" stroke="none">
    <title>Canvas 1</title>
    <rect fill="white" x="19.84252" y="9.383158" width="803.8449" height="554.71135"/>
    <g id="Canvas_1_Content">
      <title>Content</title>
      <g id="Graphic_799">
        <path d="M 112.31496 325.98426 L 724.7874 325.98426 C 726.9966 325.98426 728.7874 327.77512 728.7874 329.98426 L 728.7874 509.0709 C 728.7874 511.28 726.9966 513.0709 724.7874 513.0709 L 112.31496 513.0709 C 110.10583 513.0709 108.31496 511.28 108.31496 509.0709 L 108.31496 329.98426 C 108.31496 327.77512 110.10583 325.98426 112.31496 325.98426 Z" fill="#f5dbc1"/>
      </g>
      <g id="Graphic_798">
        <path d="M 112.31496 79.37008 L 724.7874 79.37008 C 726.9966 79.37008 728.7874 81.16094 728.7874 83.37008 L 728.7874 316.31497 C 728.7874 318.5241 726.9966 320.31497 724.7874 320.31497 L 112.31496 320.31497 C 110.10583 320.31497 108.31496 318.5241 108.31496 316.31497 L 108.31496 83.37008 C 108.31496 81.16094 110.10583 79.37008 112.31496 79.37008 Z" fill="#c0dbf5"/>
      </g>
      <g id="Group_774">
        <g id="Graphic_629">
          <path d="M 227.2126 212.59843 L 305.6378 212.59843 C 316.6835 212.59843 325.6378 221.55274 325.6378 232.59843 L 325.6378 237.95276 C 325.6378 248.99846 316.6835 257.95276 305.6378 257.95276 L 227.2126 257.95276 C 216.1669 257.95276 207.2126 248.99846 207.2126 237.95276 L 207.2126 232.59843 C 207.2126 221.55274 216.1669 212.59843 227.2126 212.59843 Z" fill="#929292"/>
        </g>
        <g id="Graphic_624">
          <rect x="235.55906" y="218.26772" width="61.92" height="29.200006" fill="#929292"/>
          <text transform="translate(240.55906 223.26772)" fill="white">
            <tspan font-family="Myriad Pro" font-size="16" fill="white" x="0" y="12" xml:space="preserve">SKETCH</tspan>
          </text>
        </g>
      </g>
      <g id="Group_767">
        <g id="Graphic_631">
          <path d="M 367.74804 90.70866 L 478.17324 90.70866 C 480.3824 90.70866 482.17324 92.49952 482.17324 94.70866 L 482.17324 132.063 C 482.17324 134.27213 480.3824 136.063 478.17324 136.063 L 367.74804 136.063 C 365.5389 136.063 363.74804 134.27213 363.74804 132.063 L 363.74804 94.70866 C 363.74804 92.49952 365.5389 90.70866 367.74804 90.70866 Z" fill="#368ddf"/>
        </g>
        <g id="Graphic_628">
          <text transform="translate(399.6032 107.04725)" fill="white">
            <tspan font-family="Myriad Pro" font-weight="bold" font-size="16" fill="white" x="61106675e-20" y="12" xml:space="preserve">analyse</tspan>
          </text>
        </g>
      </g>
      <g id="Line_639">
        <path d="M 363.74804 110.55118 L 161.85827 110.55118 L 161.85827 235.2756 L 196.7126 235.2756" marker-end="url(#FilledArrow_Marker)" stroke="#1067b2" stroke-linecap="round" stroke-linejoin="round" stroke-width="2"/>
      </g>
      <g id="Group_777">
        <g id="Graphic_725">
          <path d="M 539.02364 394.01576 L 617.44884 394.01576 C 628.4945 394.01576 637.4488 402.97006 637.4488 414.01576 L 637.4488 419.3701 C 637.4488 430.4158 628.4945 439.3701 617.44884 439.3701 L 539.02364 439.3701 C 527.97794 439.3701 519.02364 430.4158 519.02364 419.3701 L 519.02364 414.01576 C 519.02364 402.97006 527.97794 394.01576 539.02364 394.01576 Z" fill="#494949"/>
        </g>
        <g id="Graphic_726">
          <text transform="translate(546.7008 404.68505)" fill="white">
            <tspan font-family="Myriad Pro" font-size="16" fill="white" x="682121e-18" y="12" xml:space="preserve">ARTIFACT</tspan>
          </text>
        </g>
      </g>
      <g id="Group_768">
        <g id="Graphic_728">
          <path d="M 367.74804 157.62836 L 478.17324 157.62836 C 480.3824 157.62836 482.17324 159.41922 482.17324 161.62836 L 482.17324 198.98269 C 482.17324 201.19183 480.3824 202.98269 478.17324 202.98269 L 367.74804 202.98269 C 365.5389 202.98269 363.74804 201.19183 363.74804 198.98269 L 363.74804 161.62836 C 363.74804 159.41922 365.5389 157.62836 367.74804 157.62836 Z" fill="#1067b2"/>
        </g>
        <g id="Graphic_727">
          <text transform="translate(391.2091 173.96694)" fill="white">
            <tspan font-family="Myriad Pro" font-weight="bold" font-size="16" fill="white" x="8100187e-19" y="12" xml:space="preserve">elaborate</tspan>
          </text>
        </g>
      </g>
      <g id="Line_729">
        <path d="M 325.4303 230.39038 L 340.44096 230.39038 L 340.44096 177.47088 L 352.61812 177.47088" marker-end="url(#FilledArrow_Marker)" stroke="#1067b2" stroke-linecap="round" stroke-linejoin="round" stroke-width="2"/>
      </g>
      <g id="Group_769">
        <g id="Graphic_731">
          <path d="M 367.74804 211.48662 L 478.17324 211.48662 C 480.3824 211.48662 482.17324 213.27749 482.17324 215.48662 L 482.17324 252.84096 C 482.17324 255.0501 480.3824 256.84096 478.17324 256.84096 L 367.74804 256.84096 C 365.5389 256.84096 363.74804 255.0501 363.74804 252.84096 L 363.74804 215.48662 C 363.74804 213.27749 365.5389 211.48662 367.74804 211.48662 Z" fill="#1067b2"/>
        </g>
        <g id="Graphic_730">
          <text transform="translate(396.9771 227.8252)" fill="white">
            <tspan font-family="Myriad Pro" font-weight="bold" font-size="16" fill="white" x="7744916e-19" y="12" xml:space="preserve">refactor</tspan>
          </text>
        </g>
      </g>
      <g id="Line_734">
        <line x1="325.6378" y1="235.2756" x2="355.45277" y2="235.2756" marker-end="url(#FilledArrow_Marker)" stroke="#1067b2" stroke-linecap="round" stroke-linejoin="round" stroke-width="2"/>
      </g>
      <g id="Line_735">
        <path d="M 326.26773 240.9449 L 340.44096 240.9449 L 340.44096 286.29922 L 355.45277 286.29922" marker-end="url(#FilledArrow_Marker)" stroke="#1067b2" stroke-linecap="round" stroke-linejoin="round" stroke-width="2"/>
      </g>
      <g id="Group_775">
        <g id="Graphic_737">
          <path d="M 539.02364 212.59843 L 617.44884 212.59843 C 628.4945 212.59843 637.4488 221.55274 637.4488 232.59843 L 637.4488 237.95276 C 637.4488 248.99846 628.4945 257.95276 617.44884 257.95276 L 539.02364 257.95276 C 527.97794 257.95276 519.02364 248.99846 519.02364 237.95276 L 519.02364 232.59843 C 519.02364 221.55274 527.97794 212.59843 539.02364 212.59843 Z" fill="#929292"/>
        </g>
        <g id="Graphic_736">
          <text transform="translate(535.3622 223.26772)" fill="white">
            <tspan font-family="Myriad Pro" font-size="16" fill="white" x="0" y="12" xml:space="preserve">APPROACHES</tspan>
          </text>
        </g>
      </g>
      <g id="Line_738">
        <path d="M 482.17324 177.47088 L 499.1811 177.47088 L 499.1811 230.39038 L 508.52364 230.39038" marker-end="url(#FilledArrow_Marker)" stroke="#1067b2" stroke-linecap="round" stroke-linejoin="round" stroke-width="2"/>
      </g>
      <g id="Line_739">
        <line x1="482.17324" y1="235.2756" x2="508.52364" y2="235.2756" marker-end="url(#FilledArrow_Marker)" stroke="#1067b2" stroke-linecap="round" stroke-linejoin="round" stroke-width="2"/>
      </g>
      <g id="Line_740">
        <path d="M 482.17324 286.29922 L 499.1811 286.29922 L 499.1811 240.9449 L 508.52364 240.9449" marker-end="url(#FilledArrow_Marker)" stroke="#1067b2" stroke-linecap="round" stroke-linejoin="round" stroke-width="2"/>
      </g>
      <g id="Group_776">
        <g id="Graphic_742">
          <path d="M 227.2126 391.1811 L 305.6378 391.1811 C 316.6835 391.1811 325.6378 400.1354 325.6378 411.1811 L 325.6378 416.53545 C 325.6378 427.58114 316.6835 436.53545 305.6378 436.53545 L 227.2126 436.53545 C 216.1669 436.53545 207.2126 427.58114 207.2126 416.53545 L 207.2126 411.1811 C 207.2126 400.1354 216.1669 391.1811 227.2126 391.1811 Z" fill="#494949"/>
        </g>
        <g id="Graphic_741">
          <text transform="translate(249.2817 401.8504)" fill="white">
            <tspan font-family="Myriad Pro" font-size="16" fill="white" x="0" y="12" xml:space="preserve">TASK</tspan>
          </text>
        </g>
      </g>
      <g id="Line_743">
        <path d="M 637.4488 235.2756 L 652.252 235.2756 L 652.252 323.90093 L 178.86615 323.90093 L 178.86615 408.189 L 196.7126 408.189" marker-end="url(#FilledArrow_Marker_2)" stroke="#b31f19" stroke-linecap="round" stroke-linejoin="round" stroke-width="2"/>
      </g>
      <g id="Group_771">
        <g id="Graphic_749">
          <path d="M 367.74804 340.94157 L 478.17324 340.94157 C 480.3824 340.94157 482.17324 342.73243 482.17324 344.94157 L 482.17324 382.2959 C 482.17324 384.50504 480.3824 386.2959 478.17324 386.2959 L 367.74804 386.2959 C 365.5389 386.2959 363.74804 384.50504 363.74804 382.2959 L 363.74804 344.94157 C 363.74804 342.73243 365.5389 340.94157 367.74804 340.94157 Z" fill="#df8f37"/>
        </g>
        <g id="Graphic_748">
          <text transform="translate(410.6971 357.28015)" fill="white">
            <tspan font-family="Myriad Pro" font-weight="bold" font-size="16" fill="white" x="0" y="12" xml:space="preserve">edit</tspan>
          </text>
        </g>
      </g>
      <g id="Group_772">
        <g id="Graphic_747">
          <path d="M 367.74804 394.79984 L 478.17324 394.79984 C 480.3824 394.79984 482.17324 396.5907 482.17324 398.79984 L 482.17324 436.15417 C 482.17324 438.3633 480.3824 440.15417 478.17324 440.15417 L 367.74804 440.15417 C 365.5389 440.15417 363.74804 438.3633 363.74804 436.15417 L 363.74804 398.79984 C 363.74804 396.5907 365.5389 394.79984 367.74804 394.79984 Z" fill="#b26813"/>
        </g>
        <g id="Graphic_746">
          <text transform="translate(386.3771 411.1384)" fill="white">
            <tspan font-family="Myriad Pro" font-weight="bold" font-size="16" fill="white" x="0" y="12" xml:space="preserve">implement</tspan>
          </text>
        </g>
      </g>
      <g id="Group_773">
        <g id="Graphic_745">
          <path d="M 367.74804 448.6581 L 478.17324 448.6581 C 480.3824 448.6581 482.17324 450.44897 482.17324 452.6581 L 482.17324 490.01244 C 482.17324 492.2216 480.3824 494.01244 478.17324 494.01244 L 367.74804 494.01244 C 365.5389 494.01244 363.74804 492.2216 363.74804 490.01244 L 363.74804 452.6581 C 363.74804 450.44897 365.5389 448.6581 367.74804 448.6581 Z" fill="#df8f37"/>
        </g>
        <g id="Graphic_744">
          <text transform="translate(394.2971 464.9967)" fill="white">
            <tspan font-family="Myriad Pro" font-weight="bold" font-size="16" fill="white" x="0" y="12" xml:space="preserve">preflight</tspan>
          </text>
        </g>
      </g>
      <g id="Line_755">
        <line x1="482.17324" y1="419.52757" x2="508.52364" y2="419.52757" marker-end="url(#FilledArrow_Marker_3)" stroke="#b26813" stroke-linecap="round" stroke-linejoin="round" stroke-width="2"/>
      </g>
      <g id="Line_756">
        <path d="M 637.4488 419.52757 L 660.7559 419.52757 L 660.7559 110.55118 L 492.67324 110.55118" marker-end="url(#FilledArrow_Marker)" stroke="#1067b2" stroke-linecap="round" stroke-linejoin="round" stroke-width="2"/>
      </g>
      <g id="Group_770">
        <g id="Graphic_733">
          <path d="M 367.74804 265.3449 L 478.17324 265.3449 C 480.3824 265.3449 482.17324 267.13575 482.17324 269.3449 L 482.17324 306.69923 C 482.17324 308.90836 480.3824 310.69923 478.17324 310.69923 L 367.74804 310.69923 C 365.5389 310.69923 363.74804 308.90836 363.74804 306.69923 L 363.74804 269.3449 C 363.74804 267.13575 365.5389 265.3449 367.74804 265.3449 Z" fill="#1067b2"/>
        </g>
        <g id="Graphic_758">
          <text transform="translate(407.28098 279.96064)" fill="white">
            <tspan font-family="Myriad Pro" font-weight="bold" font-size="16" fill="white" x="6430412e-19" y="12" xml:space="preserve">craft</tspan>
          </text>
        </g>
      </g>
      <g id="Line_761">
        <path d="M 363.1181 476.2205 L 161.85827 476.2205 L 161.85827 423.474 L 196.7126 423.474" marker-end="url(#FilledArrow_Marker_3)" stroke="#b26813" stroke-linecap="round" stroke-linejoin="round" stroke-width="2"/>
      </g>
      <g id="Line_763">
        <path d="M 196.7126 402.5197 L 190.20473 402.5197 L 190.20473 351.49607 L 363.1181 351.49607" marker-start="url(#FilledArrow_Marker_4)" stroke="#b26813" stroke-linecap="round" stroke-linejoin="round" stroke-width="2"/>
      </g>
      <g id="Line_780">
        <path d="M 326.26773 412.9195 L 341.2784 412.9195 L 341.2784 360 L 353.45556 360" marker-end="url(#FilledArrow_Marker_3)" stroke="#b26813" stroke-linecap="round" stroke-linejoin="round" stroke-width="2"/>
      </g>
      <g id="Line_779">
        <line x1="326.47524" y1="417.80473" x2="356.2902" y2="417.80473" marker-end="url(#FilledArrow_Marker_3)" stroke="#b26813" stroke-linecap="round" stroke-linejoin="round" stroke-width="2"/>
      </g>
      <g id="Line_778">
        <path d="M 325.4303 423.474 L 341.2784 423.474 L 341.2784 468.82836 L 356.2902 468.82836" marker-end="url(#FilledArrow_Marker_3)" stroke="#b26813" stroke-linecap="round" stroke-linejoin="round" stroke-width="2"/>
      </g>
      <g id="Graphic_781">
        <text transform="translate(229.94285 242.15276)" fill="white">
          <tspan font-family="Myriad Pro" font-size="9" fill="white" x="8668621e-19" y="7" xml:space="preserve">ephemeral (prompt)</tspan>
        </text>
      </g>
      <g id="Graphic_782">
        <text transform="translate(547.5769 242.15276)" fill="white">
          <tspan font-family="Myriad Pro" font-size="9" fill="white" x="55777605e-20" y="7" xml:space="preserve">ephemeral (plan)</tspan>
        </text>
      </g>
      <g id="Graphic_783">
        <text transform="translate(249.063 420.73544)" fill="white">
          <tspan font-family="Myriad Pro" font-size="9" fill="white" x="14566126e-20" y="7" xml:space="preserve">persistant</tspan>
        </text>
      </g>
      <g id="Graphic_784">
        <text transform="translate(560.874 424.52757)" fill="white">
          <tspan font-family="Myriad Pro" font-size="9" fill="white" x="14566126e-20" y="7" xml:space="preserve">persistant</tspan>
        </text>
      </g>
      <g id="Line_785">
        <path d="M 147.68504 323.1496 L 161.85827 323.1496 L 161.85827 240.9449 L 196.7126 240.9449" marker-end="url(#FilledArrow_Marker_5)" stroke="black" stroke-linecap="round" stroke-linejoin="round" stroke-width="2"/>
      </g>
      <g id="Graphic_786">
        <circle cx="136.34646" cy="323.1496" r="11.338601110497" fill="black"/>
        <circle cx="136.34646" cy="323.1496" r="11.338601110497" stroke="black" stroke-linecap="round" stroke-linejoin="round" stroke-width="1"/>
      </g>
      <g id="Line_788">
        <path d="M 637.4488 425.19686 L 669.2599 425.19686 L 669.2599 324.87245 L 681.437 324.87245" marker-end="url(#FilledArrow_Marker_5)" stroke="black" stroke-linecap="round" stroke-linejoin="round" stroke-width="2"/>
      </g>
      <g id="Group_791">
        <g id="Graphic_787">
          <circle cx="703.2756" cy="323.1496" r="11.3386011104969" stroke="black" stroke-linecap="round" stroke-linejoin="round" stroke-width="1"/>
        </g>
        <g id="Graphic_789">
          <circle cx="703.4208" cy="323.00444" r="7.08662569406063" fill="black"/>
          <circle cx="703.4208" cy="323.00444" r="7.08662569406063" stroke="black" stroke-linecap="round" stroke-linejoin="round" stroke-width="1"/>
        </g>
      </g>
      <g id="Line_790">
        <path d="M 147.68504 323.1496 L 161.85827 323.1496 L 161.85827 415.73544 L 196.7126 415.73544" marker-end="url(#FilledArrow_Marker_5)" stroke="black" stroke-linecap="round" stroke-linejoin="round" stroke-width="2"/>
      </g>
      <g id="Graphic_792">
        <text transform="translate(560.874 311.14174)" fill="#b31f19">
          <tspan font-family="Myriad Pro" font-size="9" fill="#b31f19" x="0" y="7" xml:space="preserve">single choice selection</tspan>
        </text>
      </g>
      <g id="Line_793">
        <line x1="619.5084" y1="238.06773" x2="626.4662" y2="238.06773" stroke="white" stroke-linecap="round" stroke-linejoin="round" stroke-width="1"/>
      </g>
      <g id="Line_794">
        <line x1="619.7389" y1="239.8607" x2="626.6967" y2="239.8607" stroke="white" stroke-linecap="round" stroke-linejoin="round" stroke-width="1"/>
      </g>
      <g id="Group_797">
        <g id="Graphic_796">
          <circle cx="306.4252" cy="405.35434" r="8.50395083287274" fill="white"/>
        </g>
        <g id="Graphic_795">
          <text transform="translate(302.70977 401.9346)" fill="black">
            <tspan font-family="Myriad Pro" font-size="9" fill="black" x="2184919e-19" y="7" xml:space="preserve">ID</tspan>
          </text>
        </g>
      </g>
      <g id="Graphic_800">
        <text transform="translate(124.33859 299.80316)" fill="black">
          <tspan font-family="Myriad Pro" font-size="9" fill="black" x="35171865e-20" y="7" xml:space="preserve">START</tspan>
        </text>
      </g>
      <g id="Graphic_801">
        <text transform="translate(694.2917 299.80316)" fill="black">
          <tspan font-family="Myriad Pro" font-size="9" fill="black" x="0" y="7" xml:space="preserve">END</tspan>
        </text>
      </g>
      <g id="Line_802">
        <path d="M 266.74017 436.53545 L 266.74017 469.7205 C 273.24017 469.7205 273.24017 482.7205 266.74017 482.7205 L 266.74017 500.6205 L 674.6987 498.89765 L 674.6987 339.7289" marker-end="url(#FilledArrow_Marker_5)" stroke="black" stroke-linecap="round" stroke-linejoin="round" stroke-width="2"/>
      </g>
      <g id="Graphic_803">
        <text transform="translate(115.83465 87.20473)" fill="#1067b2">
          <tspan font-family="Myriad Pro" font-size="12" fill="#1067b2" x="0" y="9" xml:space="preserve">SKETCHING</tspan>
        </text>
      </g>
      <g id="Graphic_804">
        <text transform="translate(115.83465 493.6709)" fill="#b26813">
          <tspan font-family="Myriad Pro" font-size="12" fill="#b26813" x="0" y="9" xml:space="preserve">SPECIFYING</tspan>
        </text>
      </g>
      <g id="Group_805">
        <g id="Graphic_807">
          <path d="M 23.84252 348.66143 L 97.70079 348.66143 C 99.90993 348.66143 101.70079 350.4523 101.70079 352.66143 L 101.70079 390.01576 C 101.70079 392.2249 99.90993 394.01576 97.70079 394.01576 L 23.84252 394.01576 C 21.63338 394.01576 19.84252 392.2249 19.84252 390.01576 L 19.84252 352.66143 C 19.84252 350.4523 21.63338 348.66143 23.84252 348.66143 Z" fill="#368ddf"/>
        </g>
        <g id="Graphic_806">
          <text transform="translate(33.011068 365)" fill="white">
            <tspan font-family="Myriad Pro" font-weight="bold" font-size="16" fill="white" x="0" y="12" xml:space="preserve">discover</tspan>
          </text>
        </g>
      </g>
      <g id="Group_808">
        <g id="Graphic_810">
          <path d="M 741.0079 297.6378 L 812.378 297.6378 C 814.5871 297.6378 816.378 299.42866 816.378 301.6378 L 816.378 338.99214 C 816.378 341.20127 814.5871 342.99214 812.378 342.99214 L 741.0079 342.99214 C 738.79876 342.99214 737.0079 341.20127 737.0079 338.99214 L 737.0079 301.6378 C 737.0079 299.42866 738.79876 297.6378 741.0079 297.6378 Z" fill="#df8f37"/>
        </g>
        <g id="Graphic_809">
          <text transform="translate(745.9194 313.9764)" fill="white">
            <tspan font-family="Myriad Pro" font-weight="bold" font-size="16" fill="white" x="0" y="12" xml:space="preserve">changes</tspan>
          </text>
        </g>
      </g>
      <g id="Group_818">
        <g id="Graphic_820">
          <path d="M 741.0079 130.3937 L 812.378 130.3937 C 814.5871 130.3937 816.378 132.18457 816.378 134.3937 L 816.378 171.74804 C 816.378 173.95718 814.5871 175.74804 812.378 175.74804 L 741.0079 175.74804 C 738.79876 175.74804 737.0079 173.95718 737.0079 171.74804 L 737.0079 134.3937 C 737.0079 132.18457 738.79876 130.3937 741.0079 130.3937 Z" fill="#368ddf"/>
        </g>
        <g id="Graphic_819">
          <text transform="translate(750.2752 146.73229)" fill="white">
            <tspan font-family="Myriad Pro" font-weight="bold" font-size="16" fill="white" x="5115908e-19" y="12" xml:space="preserve">explain</tspan>
          </text>
        </g>
      </g>
      <g id="Group_821">
        <g id="Graphic_823">
          <path d="M 741.0079 79.37008 L 812.378 79.37008 C 814.5871 79.37008 816.378 81.16094 816.378 83.37008 L 816.378 120.72441 C 816.378 122.93355 814.5871 124.72441 812.378 124.72441 L 741.0079 124.72441 C 738.79876 124.72441 737.0079 122.93355 737.0079 120.72441 L 737.0079 83.37008 C 737.0079 81.16094 738.79876 79.37008 741.0079 79.37008 Z" fill="#368ddf"/>
        </g>
        <g id="Graphic_822">
          <text transform="translate(751.7792 95.70866)" fill="white">
            <tspan font-family="Myriad Pro" font-weight="bold" font-size="16" fill="white" x="0" y="12" xml:space="preserve">insight</tspan>
          </text>
        </g>
      </g>
      <g id="Group_827">
        <g id="Graphic_829">
          <path d="M 23.84252 130.3937 L 97.70079 130.3937 C 99.90993 130.3937 101.70079 132.18457 101.70079 134.3937 L 101.70079 171.74804 C 101.70079 173.95718 99.90993 175.74804 97.70079 175.74804 L 23.84252 175.74804 C 21.63338 175.74804 19.84252 173.95718 19.84252 171.74804 L 19.84252 134.3937 C 19.84252 132.18457 21.63338 130.3937 23.84252 130.3937 Z" fill="#368ddf"/>
        </g>
        <g id="Graphic_828">
          <text transform="translate(32.297983 146.73229)" fill="white">
            <tspan font-family="Myriad Pro" font-weight="bold" font-size="16" fill="white" x="0" y="12" xml:space="preserve">evaluate</tspan>
          </text>
        </g>
      </g>
      <g id="Group_830">
        <g id="Graphic_832">
          <path d="M 23.84252 181.41733 L 97.70079 181.41733 C 99.90993 181.41733 101.70079 183.20819 101.70079 185.41733 L 101.70079 222.77166 C 101.70079 224.9808 99.90993 226.77166 97.70079 226.77166 L 23.84252 226.77166 C 21.63338 226.77166 19.84252 224.9808 19.84252 222.77166 L 19.84252 185.41733 C 19.84252 183.20819 21.63338 181.41733 23.84252 181.41733 Z" fill="#368ddf"/>
        </g>
        <g id="Graphic_831">
          <text transform="translate(33.986864 197.7559)" fill="white">
            <tspan font-family="Myriad Pro" font-weight="bold" font-size="16" fill="white" x="6430412e-19" y="12" xml:space="preserve">quorum</tspan>
          </text>
        </g>
      </g>
      <g id="Group_833">
        <g id="Graphic_835">
          <path d="M 23.84252 297.6378 L 97.70079 297.6378 C 99.90993 297.6378 101.70079 299.42866 101.70079 301.6378 L 101.70079 338.99214 C 101.70079 341.20127 99.90993 342.99214 97.70079 342.99214 L 23.84252 342.99214 C 21.63338 342.99214 19.84252 341.20127 19.84252 338.99214 L 19.84252 301.6378 C 19.84252 299.42866 21.63338 297.6378 23.84252 297.6378 Z" fill="#368ddf"/>
        </g>
        <g id="Graphic_834">
          <text transform="translate(39.076026 313.9764)" fill="white">
            <tspan font-family="Myriad Pro" font-weight="bold" font-size="16" fill="white" x="0" y="12" xml:space="preserve">search</tspan>
          </text>
        </g>
      </g>
      <g id="Group_836">
        <g id="Graphic_838">
          <path d="M 23.84252 79.37008 L 97.70079 79.37008 C 99.90993 79.37008 101.70079 81.16094 101.70079 83.37008 L 101.70079 120.72441 C 101.70079 122.93355 99.90993 124.72441 97.70079 124.72441 L 23.84252 124.72441 C 21.63338 124.72441 19.84252 122.93355 19.84252 120.72441 L 19.84252 83.37008 C 19.84252 81.16094 21.63338 79.37008 23.84252 79.37008 Z" fill="#368ddf"/>
        </g>
        <g id="Graphic_837">
          <text transform="translate(46.612187 95.70866)" fill="white">
            <tspan font-family="Myriad Pro" font-weight="bold" font-size="16" fill="white" x="50803806e-20" y="12" xml:space="preserve">why</tspan>
          </text>
        </g>
      </g>
      <g id="Group_839">
        <g id="Graphic_841">
          <path d="M 23.84252 246.61418 L 97.70079 246.61418 C 99.90993 246.61418 101.70079 248.40504 101.70079 250.61418 L 101.70079 287.9685 C 101.70079 290.17765 99.90993 291.9685 97.70079 291.9685 L 23.84252 291.9685 C 21.63338 291.9685 19.84252 290.17765 19.84252 287.9685 L 19.84252 250.61418 C 19.84252 248.40504 21.63338 246.61418 23.84252 246.61418 Z" fill="#368ddf"/>
        </g>
        <g id="Graphic_840">
          <text transform="translate(46.094264 262.95276)" fill="white">
            <tspan font-family="Myriad Pro" font-weight="bold" font-size="16" fill="white" x="18829382e-20" y="12" xml:space="preserve">chat</tspan>
          </text>
        </g>
      </g>
      <g id="Group_842">
        <g id="Graphic_844">
          <path d="M 741.0079 246.61418 L 812.378 246.61418 C 814.5871 246.61418 816.378 248.40504 816.378 250.61418 L 816.378 287.9685 C 816.378 290.17765 814.5871 291.9685 812.378 291.9685 L 741.0079 291.9685 C 738.79876 291.9685 737.0079 290.17765 737.0079 287.9685 L 737.0079 250.61418 C 737.0079 248.40504 738.79876 246.61418 741.0079 246.61418 Z" fill="#df8f37"/>
        </g>
        <g id="Graphic_843">
          <text transform="translate(763.3274 262.95276)" fill="white">
            <tspan font-family="Myriad Pro" font-weight="bold" font-size="16" fill="white" x="31974423e-20" y="12" xml:space="preserve">lint</tspan>
          </text>
        </g>
      </g>
      <g id="Group_845">
        <g id="Graphic_847">
          <path d="M 299.08662 518.7402 L 370.4567 518.7402 C 372.66584 518.7402 374.4567 520.53103 374.4567 522.7402 L 374.4567 560.0945 C 374.4567 562.30364 372.66584 564.0945 370.4567 564.0945 L 299.08662 564.0945 C 296.8775 564.0945 295.08662 562.30364 295.08662 560.0945 L 295.08662 522.7402 C 295.08662 520.53103 296.8775 518.7402 299.08662 518.7402 Z" fill="#929292"/>
        </g>
        <g id="Graphic_846">
          <text transform="translate(306.7928 535.07875)" fill="white">
            <tspan font-family="Myriad Pro" font-weight="bold" font-size="16" fill="white" x="2344791e-19" y="12" xml:space="preserve">persona</tspan>
          </text>
        </g>
      </g>
      <g id="Group_848">
        <g id="Graphic_850">
          <path d="M 384.126 518.7402 L 455.4961 518.7402 C 457.7052 518.7402 459.4961 520.53103 459.4961 522.7402 L 459.4961 560.0945 C 459.4961 562.30364 457.7052 564.0945 455.4961 564.0945 L 384.126 564.0945 C 381.91686 564.0945 380.126 562.30364 380.126 560.0945 L 380.126 522.7402 C 380.126 520.53103 381.91686 518.7402 384.126 518.7402 Z" fill="#929292"/>
        </g>
        <g id="Graphic_849">
          <text transform="translate(405.2181 535.07875)" fill="white">
            <tspan font-family="Myriad Pro" font-weight="bold" font-size="16" fill="white" x="6554757e-19" y="12" xml:space="preserve">task</tspan>
          </text>
        </g>
      </g>
      <g id="Group_866">
        <g id="Graphic_868">
          <path d="M 741.0079 181.41733 L 812.378 181.41733 C 814.5871 181.41733 816.378 183.20819 816.378 185.41733 L 816.378 222.77166 C 816.378 224.9808 814.5871 226.77166 812.378 226.77166 L 741.0079 226.77166 C 738.79876 226.77166 737.0079 224.9808 737.0079 222.77166 L 737.0079 185.41733 C 737.0079 183.20819 738.79876 181.41733 741.0079 181.41733 Z" fill="#929292"/>
        </g>
        <g id="Graphic_867">
          <text transform="translate(746.7792 197.7559)" fill="white">
            <tspan font-family="Myriad Pro" font-weight="bold" font-size="16" fill="white" x="0" y="12" xml:space="preserve">diagram</tspan>
          </text>
        </g>
      </g>
      <g id="Group_869">
        <g id="Graphic_871">
          <path d="M 469.16537 518.7402 L 540.53545 518.7402 C 542.7446 518.7402 544.53545 520.53103 544.53545 522.7402 L 544.53545 560.0945 C 544.53545 562.30364 542.7446 564.0945 540.53545 564.0945 L 469.16537 564.0945 C 466.95623 564.0945 465.16537 562.30364 465.16537 560.0945 L 465.16537 522.7402 C 465.16537 520.53103 466.95623 518.7402 469.16537 518.7402 Z" fill="#929292"/>
        </g>
        <g id="Graphic_870">
          <text transform="translate(489.19926 535.07875)" fill="white">
            <tspan font-family="Myriad Pro" font-weight="bold" font-size="16" fill="white" x="20250468e-20" y="12" xml:space="preserve">plan</tspan>
          </text>
        </g>
      </g>
      <g id="Group_872">
        <g id="Graphic_874">
          <path d="M 741.0079 348.66143 L 812.378 348.66143 C 814.5871 348.66143 816.378 350.4523 816.378 352.66143 L 816.378 390.01576 C 816.378 392.2249 814.5871 394.01576 812.378 394.01576 L 741.0079 394.01576 C 738.79876 394.01576 737.0079 392.2249 737.0079 390.01576 L 737.0079 352.66143 C 737.0079 350.4523 738.79876 348.66143 741.0079 348.66143 Z" fill="#929292"/>
        </g>
        <g id="Graphic_873">
          <text transform="translate(749.2592 365)" fill="white">
            <tspan font-family="Myriad Pro" font-weight="bold" font-size="16" fill="white" x="1314504e-19" y="12" xml:space="preserve">commit</tspan>
          </text>
        </g>
      </g>
    </g>
  </g>
</svg>
